<svg version="1.1" id="Layer_1" xmlns="http://www.w3.org/2000/svg" xmlns:xlink="http://www.w3.org/1999/xlink" x="0px" y="0px"
	 width="100%" viewBox="0 0 241 241" enable-background="new 0 0 241 241" xml:space="preserve">
<path fill="#1B3229" opacity="1.000000" stroke="none" 
	d="
M157.000000,242.000000 
	C104.666672,242.000000 52.833340,242.000000 1.000007,242.000000 
	C1.000005,161.666672 1.000005,81.333351 1.000002,1.000018 
	C81.333321,1.000012 161.666641,1.000012 241.999969,1.000006 
	C241.999985,81.333321 241.999985,161.666641 242.000000,241.999969 
	C213.833328,242.000000 185.666672,242.000000 157.000000,242.000000 
M183.329071,179.941071 
	C163.291428,131.782806 143.253784,83.624535 122.672737,34.160255 
	C100.535500,87.789551 78.944984,140.094360 57.327679,192.464066 
	C62.247616,194.006088 64.323318,192.348740 65.911430,188.363968 
	C72.010300,173.061203 78.530220,157.926712 84.704399,142.653168 
	C85.876152,139.754486 87.342361,138.655716 90.531456,138.683289 
	C108.354462,138.837463 126.180511,138.854889 144.002960,138.671631 
	C147.422867,138.636459 148.898605,139.740692 150.073196,142.916229 
	C155.788773,158.368515 161.735825,173.736450 167.768463,189.068329 
	C168.377029,190.614960 170.033463,192.752136 171.335434,192.849335 
	C176.945404,193.268112 182.604538,193.028336 188.939133,193.028336 
	C187.024200,188.515198 185.349854,184.569092 183.329071,179.941071 
z"/>
<path fill="#F6F7F6" opacity="1.000000" stroke="none" 
	d="
M183.502289,180.282028 
	C185.349854,184.569092 187.024200,188.515198 188.939133,193.028336 
	C182.604538,193.028336 176.945404,193.268112 171.335434,192.849335 
	C170.033463,192.752136 168.377029,190.614960 167.768463,189.068329 
	C161.735825,173.736450 155.788773,158.368515 150.073196,142.916229 
	C148.898605,139.740692 147.422867,138.636459 144.002960,138.671631 
	C126.180511,138.854889 108.354462,138.837463 90.531456,138.683289 
	C87.342361,138.655716 85.876152,139.754486 84.704399,142.653168 
	C78.530220,157.926712 72.010300,173.061203 65.911430,188.363968 
	C64.323318,192.348740 62.247616,194.006088 57.327679,192.464066 
	C78.944984,140.094360 100.535500,87.789551 122.672737,34.160255 
	C143.253784,83.624535 163.291428,131.782806 183.502289,180.282028 
M127.788414,87.750984 
	C124.396561,79.476646 121.004707,71.202309 117.612854,62.927971 
	C117.155296,63.049397 116.697746,63.170818 116.240189,63.292244 
	C107.255325,85.921761 98.270470,108.551277 89.153679,131.513092 
	C108.278343,131.513092 126.470512,131.513092 145.382477,131.513092 
	C139.456772,116.781906 133.762100,102.625084 127.788414,87.750984 
z"/>
<path fill="#20372E" opacity="1.000000" stroke="none" 
	d="
M127.927917,88.109619 
	C133.762100,102.625084 139.456772,116.781906 145.382477,131.513092 
	C126.470512,131.513092 108.278343,131.513092 89.153679,131.513092 
	C98.270470,108.551277 107.255325,85.921761 116.240189,63.292244 
	C116.697746,63.170818 117.155296,63.049397 117.612854,62.927971 
	C121.004707,71.202309 124.396561,79.476646 127.927917,88.109619 
z"/>
</svg>